<?xml version="1.0"?>
<svg style="enable-background:new 0 0 36 36;" version="1.1" viewBox="0 0 36 36"
    xml:space="preserve" xmlns="http://www.w3.org/2000/svg"
    xmlns:xlink="http://www.w3.org/1999/xlink">
    <style type="text/css">
        .st0 {
            fill: #222A30;
        }

        .st1 {
            fill: none;
            stroke: #222A30;
            stroke-width: 2.0101;
            stroke-linejoin: round;
            stroke-miterlimit: 10;
        }

        .st2 {
            fill: #171715;
        }

        .st3 {
            fill-rule: evenodd;
            clip-rule: evenodd;
            fill: #222A30;
        }
    </style>
    <g id="Layer_1" />
    <g id="icons">
        <path class="st0"
            d="M29.5,6.3c-0.3-1-1.3-1.7-2.3-1.7H8.8c-1.2,0-2,0.7-2.3,1.7L3,16.3v13.3   c0,0.9,0.7,1.7,1.7,1.7h1.7c0.9,0,1.7-0.7,1.7-1.7v-1C8,28.3,8.3,28,8.6,28h18.7c0.4,0,0.6,0.3,0.6,0.6v1c0,0.9,0.7,1.7,1.7,1.7   h1.7c0.9,0,1.7-0.7,1.7-1.7V16.3L29.5,6.3z M8.8,23c-1.3,0-2.5-1.2-2.5-2.5S7.5,18,8.8,18s2.5,1.2,2.5,2.5S10.2,23,8.8,23z    M27.2,23c-1.3,0-2.5-1.2-2.5-2.5s1.2-2.5,2.5-2.5s2.5,1.2,2.5,2.5S28.5,23,27.2,23z M6.8,13.3l1.8-5.4c0.1-0.4,0.5-0.7,1-0.7h16.8   c0.4,0,0.8,0.3,1,0.7l1.8,5.4c0.2,0.7-0.3,1.4-1,1.4H7.8C7.1,14.7,6.6,14,6.8,13.3z"
            id="car_x5F_drive_1_" />
    </g>
</svg>